HIERARCHY
ROOT root
{
	OFFSET 0.000000 0.000000 0.000000
	CHANNELS 6 Xposition Yposition Zposition Zrotation Yrotation Xrotation
	JOINT lhip
	{
		OFFSET 0.058581 -0.082280 -0.017664
		CHANNELS 3 Zrotation Yrotation Xrotation
		JOINT lknee
		{
			OFFSET 0.043451 -0.386469 0.008037
			CHANNELS 3 Zrotation Yrotation Xrotation
			JOINT lankle
			{
				OFFSET -0.014790 -0.426874 -0.037428
				CHANNELS 3 Zrotation Yrotation Xrotation
				JOINT ltoe
				{
					OFFSET 0.041054 -0.060286 0.122042
					CHANNELS 3 Zrotation Yrotation Xrotation
					End Site
					{
						OFFSET 0.000000 0.000000 0.000000
					}
				}
			}
		}
	}
	JOINT rhip
	{
		OFFSET -0.060310 -0.090513 -0.013543
		CHANNELS 3 Zrotation Yrotation Xrotation
		JOINT rknee
		{
			OFFSET -0.043257 -0.383688 -0.004843
			CHANNELS 3 Zrotation Yrotation Xrotation
			JOINT rankle
			{
				OFFSET 0.019056 -0.420046 -0.034562
				CHANNELS 3 Zrotation Yrotation Xrotation
				JOINT rtoe
				{
					OFFSET -0.034840 -0.062106 0.130323
					CHANNELS 3 Zrotation Yrotation Xrotation
					End Site
					{
						OFFSET 0.000000 0.000000 0.000000
					}
				}
			}
		}
	}
	JOINT lowerback
	{
		OFFSET 0.004439 0.124404 -0.038385
		CHANNELS 3 Zrotation Yrotation Xrotation
		JOINT upperback
		{
			OFFSET 0.004488 0.137956 0.026820
			CHANNELS 3 Zrotation Yrotation Xrotation
			JOINT chest
			{
				OFFSET -0.002265 0.056032 0.002855
				CHANNELS 3 Zrotation Yrotation Xrotation
				JOINT lowerneck
				{
					OFFSET -0.013390 0.211636 -0.033468
					CHANNELS 3 Zrotation Yrotation Xrotation
					JOINT upperneck
					{
						OFFSET 0.010113 0.088937 0.050410
						CHANNELS 3 Zrotation Yrotation Xrotation
						End Site
						{
							OFFSET 0.000000 0.000000 0.000000
						}
					}
				}
				JOINT lclavicle
				{
					OFFSET 0.071702 0.114000 -0.018898
					CHANNELS 3 Zrotation Yrotation Xrotation
					JOINT lshoulder
					{
						OFFSET 0.122921 0.045205 -0.019046
						CHANNELS 3 Zrotation Yrotation Xrotation
						JOINT lelbow
						{
							OFFSET 0.255332 -0.015649 -0.022946
							CHANNELS 3 Zrotation Yrotation Xrotation
							JOINT lwrist
							{
								OFFSET 0.265709 0.012698 -0.007375
								CHANNELS 3 Zrotation Yrotation Xrotation
								End Site
								{
									OFFSET 0.000000 0.000000 0.000000
								}
							}
						}
					}
				}
				JOINT rclavicle
				{
					OFFSET -0.082954 0.112472 -0.023707
					CHANNELS 3 Zrotation Yrotation Xrotation
					JOINT rshoulder
					{
						OFFSET -0.113228 0.046853 -0.008472
						CHANNELS 3 Zrotation Yrotation Xrotation
						JOINT relbow
						{
							OFFSET -0.260127 -0.014369 -0.031269
							CHANNELS 3 Zrotation Yrotation Xrotation
							JOINT rwrist
							{
								OFFSET -0.269108 0.006794 -0.006027
								CHANNELS 3 Zrotation Yrotation Xrotation
								End Site
								{
									OFFSET 0.000000 0.000000 0.000000
								}
							}
						}
					}
				}
			}
		}
	}
}
MOTION
Frames: 7
Frame Time: 0.033333
-0.198179 0.165644 0.891930 -38.671674 10.202943 97.754834 -7.322446 -4.358842 -33.216810 -12.647196 14.836890 46.112604 16.579223 7.811335 -20.652317 0.000000 -0.000000 0.000000 -4.786731 -5.372271 -2.159640 -4.956654 -5.246904 70.087557 6.419475 -10.453710 5.201573 0.000000 -0.000000 0.000000 3.326576 4.240911 23.761610 1.167969 0.551732 -6.240397 1.708475 0.712098 1.869502 -0.523456 -10.643889 -18.439493 1.380049 1.947392 0.944781 -30.317218 5.703038 -0.265393 -54.947547 -0.440649 15.498296 176.213267 -75.957451 -152.375735 14.048426 -14.980896 -25.210264 23.947018 -1.828517 1.250263 46.902657 -11.633746 14.496914 -14.444511 62.733358 -5.874466 -7.567390 16.288848 -9.670350 
-0.273128 0.124259 0.884413 -33.509973 10.825627 98.334005 -7.810581 -4.194636 -26.965308 -11.327783 10.248142 48.723951 17.483372 12.053952 -28.923593 0.000000 -0.000000 0.000000 -6.515082 -4.908327 -10.902336 -5.254329 -7.581514 78.553313 4.233608 -13.856144 -0.282214 0.000000 -0.000000 0.000000 3.755691 1.165542 24.484028 1.396524 0.826765 -7.188284 1.695758 -0.280240 2.149114 0.563500 -10.351536 -19.767884 1.011823 2.014123 2.120794 -31.463850 5.267130 -0.911074 -56.622797 -4.222840 16.300667 172.014047 -74.916645 -147.509881 14.696707 -13.976324 -25.452941 25.485855 -2.480762 1.345454 47.826800 -13.157844 13.877126 -12.990774 54.927699 -7.638220 -8.225978 15.429447 -8.307663 
-0.394048 0.045479 0.880832 -26.579401 11.306964 97.666858 -5.493234 -2.806372 -14.286320 -11.951368 0.097265 49.247940 14.437864 13.741623 -36.305685 0.000000 -0.000000 0.000000 -11.307618 -4.882960 -25.382299 -4.761693 -8.580529 83.226075 3.346028 -15.509142 -8.716251 0.000000 -0.000000 0.000000 3.876239 -4.292024 26.269010 2.870081 1.518442 -6.259119 0.729415 -1.272745 1.674271 0.506330 -7.176631 -21.627418 0.846660 -0.207744 1.833974 -30.463661 3.466502 -0.470989 -57.278311 -10.928134 18.367043 168.752904 -69.598703 -143.214414 18.081149 -12.767831 -29.318040 28.724145 -4.227458 1.490181 48.868609 -15.378692 12.545596 -17.040662 48.527223 -13.545088 -10.775360 13.775158 -8.648055 
-0.491363 -0.029820 0.885908 -24.090816 12.377565 96.350341 -1.035007 0.068855 -2.498537 -12.743318 -8.732451 45.921227 8.922197 11.924310 -35.478670 0.000000 -0.000000 0.000000 -14.078078 -5.085500 -34.704198 -5.176864 -9.086808 77.322912 3.972268 -14.163629 -12.890708 0.000000 -0.000000 0.000000 4.466720 -8.244461 26.155544 3.446727 2.248588 -5.235562 0.625311 -1.922555 1.848440 -0.574945 -3.805618 -20.444882 0.020315 -0.890127 0.824702 -28.253820 4.367352 -0.422402 -56.498809 -13.926736 18.153852 171.199737 -65.264711 -143.989172 18.564682 -13.286374 -31.875089 28.935278 -6.679129 1.538756 48.829662 -16.696806 12.097384 -18.013810 50.810031 -12.434573 -11.639772 13.591217 -10.974704 
-0.589382 -0.113543 0.896705 -23.694313 13.291686 95.622994 3.824551 0.920569 9.079398 -12.683251 -16.208318 39.753370 1.178268 9.422065 -26.907986 0.000000 -0.000000 0.000000 -16.156687 -5.349164 -40.839675 -5.272278 -12.929344 63.490675 5.005842 -11.703803 -12.215829 0.000000 -0.000000 0.000000 5.498907 -10.811985 23.641839 3.393887 2.224443 -4.159506 1.096493 -2.766330 1.777642 -1.356183 -0.647973 -17.242389 -0.949800 -0.321298 0.003328 -27.110314 6.902043 -0.537187 -54.679336 -13.690103 17.391885 171.860905 -62.591390 -144.143555 17.411803 -14.642291 -32.073598 28.135691 -9.080020 2.019925 47.068720 -17.426618 12.129048 -15.873139 55.597564 -7.826761 -11.374103 14.082706 -12.766283 
-0.687881 -0.205217 0.906382 -24.692855 13.180283 94.932521 6.178920 0.045771 20.017343 -10.022829 -21.416246 31.251091 -5.265118 8.770435 -14.064529 0.000000 -0.000000 0.000000 -17.267279 -5.827076 -42.810895 -3.042805 -17.793881 43.589192 10.084858 -9.568900 -1.657762 0.000000 -0.000000 0.000000 6.106957 -12.153555 19.494688 2.680037 2.007498 -2.101139 2.040292 -3.185922 0.885302 -2.276284 0.102120 -13.337662 -1.406002 1.911035 -0.527769 -25.957765 9.523594 0.380862 -53.565868 -11.837868 15.857635 173.285887 -62.909846 -146.494174 15.277641 -16.197706 -30.577933 26.020461 -11.219221 3.005359 45.765439 -17.546326 10.300022 -10.977284 60.224117 -3.387192 -9.731132 15.921901 -9.197019 
-0.787205 -0.299325 0.913333 -25.200298 12.263603 94.419800 6.122226 -0.800179 26.190438 -7.410978 -23.721162 30.623170 -5.151066 8.859425 -11.373449 0.000000 -0.000000 0.000000 -16.416745 -5.933824 -42.347897 -1.243817 -20.853437 25.125564 16.842912 -10.751554 13.040414 0.000000 -0.000000 0.000000 5.877081 -11.918222 14.849531 2.526961 0.816302 -0.865386 2.782633 -3.659139 0.683535 -3.382712 -0.178552 -9.778625 -1.657385 4.335708 -1.054319 -24.218898 11.506852 2.060375 -53.144534 -10.125899 14.875883 175.170558 -66.301426 -149.238802 13.289113 -17.523277 -26.732670 24.139492 -12.831148 3.775335 45.627335 -16.936119 10.334094 -13.325105 63.570854 -5.389888 -8.454417 16.530604 -7.149227 
